<svg xmlns="http://www.w3.org/2000/svg" version="1.1" xmlns:xlink="http://www.w3.org/1999/xlink" xmlns:svgjs="http://svgjs.dev/svgjs" width="2000" height="409" viewBox="0 0 2000 409"><g transform="matrix(1,0,0,1,-1.2121212121212466,-0.49703279413060386)"><svg viewBox="0 0 396 81" data-background-color="#ffffff" preserveAspectRatio="xMidYMid meet" height="409" width="2000" xmlns="http://www.w3.org/2000/svg" xmlns:xlink="http://www.w3.org/1999/xlink"><g id="tight-bounds" transform="matrix(1,0,0,1,0.2400000000000091,0.09843436754175627)"><svg viewBox="0 0 395.52 80.80313126491646" height="80.80313126491646" width="395.52"><g><svg viewBox="0 0 395.52 80.80313126491646" height="80.80313126491646" width="395.52"><g><svg viewBox="0 0 395.52 80.80313126491646" height="80.80313126491646" width="395.52"><g id="textblocktransform"><svg viewBox="0 0 395.52 80.80313126491646" height="80.80313126491646" width="395.52" id="textblock"><g><svg viewBox="0 0 395.52 80.80313126491646" height="80.80313126491646" width="395.52"><g transform="matrix(1,0,0,1,0,0)"><svg width="395.52" viewBox="2.25 -36.25 209.49 42.8" height="80.80313126491646" data-palette-color="#121212"><g class="wordmark-text-0" data-fill-palette-color="primary" id="text-0"><path d="M2.25-17.2Q2.25-25.95 7.08-30.48 11.9-35 20.8-35L20.8-35Q29.7-35 34.55-30.45 39.4-25.9 39.4-17.2L39.4-17.2Q39.4-11.4 37.23-7.43 35.05-3.45 30.9-1.4L30.9-1.4 38.75 6.55 25.6 6.55 20.3 0.6Q11.6 0.45 6.93-4.08 2.25-8.6 2.25-17.2L2.25-17.2ZM28.1-18.8Q28.1-22.45 26.23-24.6 24.35-26.75 20.8-26.75L20.8-26.75Q17.25-26.75 15.4-24.6 13.55-22.45 13.55-18.8L13.55-18.8 13.55-15.6Q13.55-11.95 15.4-9.8 17.25-7.65 20.8-7.65L20.8-7.65Q24.35-7.65 26.23-9.8 28.1-11.95 28.1-15.6L28.1-15.6 28.1-18.8ZM71.95 0L63.8 0 63.15-4Q61.6-1.85 59.07-0.63 56.55 0.6 53.75 0.6L53.75 0.6Q49.15 0.6 46.85-1.95 44.55-4.5 44.55-9.3L44.55-9.3 44.55-26.4 54.5-26.4 54.5-10.5Q54.5-8.8 55.37-7.78 56.25-6.75 57.85-6.75L57.85-6.75Q59.7-6.75 60.85-7.95 62-9.15 62-10.9L62-10.9 62-26.4 71.95-26.4 71.95 0ZM91.05-27Q97.09-27 100.9-24.98 104.7-22.95 104.7-18.4L104.7-18.4 104.7-8.1Q104.7-7.25 105.09-6.7 105.5-6.15 106.3-6.15L106.3-6.15 108.09-6.15 108.09-0.4Q107.95-0.3 107.32-0.08 106.7 0.15 105.55 0.38 104.4 0.6 102.9 0.6L102.9 0.6Q100 0.6 98.12-0.28 96.25-1.15 95.55-2.7L95.55-2.7Q93.65-1.2 91.3-0.3 88.95 0.6 85.8 0.6L85.8 0.6Q76.5 0.6 76.5-6.8L76.5-6.8Q76.5-10.65 78.57-12.68 80.65-14.7 84.55-15.45 88.45-16.2 94.75-16.2L94.75-16.2 94.75-17.5Q94.75-19.05 93.67-19.85 92.59-20.65 90.9-20.65L90.9-20.65Q89.34-20.65 88.22-20.1 87.09-19.55 87.09-18.35L87.09-18.35 87.09-18.15 77.3-18.15Q77.25-18.4 77.25-18.85L77.25-18.85Q77.25-22.6 80.82-24.8 84.4-27 91.05-27L91.05-27ZM94.75-11.5Q90.5-11.5 88.47-10.58 86.45-9.65 86.45-8.1L86.45-8.1Q86.45-5.6 89.84-5.6L89.84-5.6Q91.8-5.6 93.27-6.65 94.75-7.7 94.75-9.25L94.75-9.25 94.75-11.5ZM129.54-27Q134.14-27 136.44-24.45 138.74-21.9 138.74-17.1L138.74-17.1 138.74 0 128.79 0 128.79-15.9Q128.79-17.6 127.92-18.63 127.04-19.65 125.44-19.65L125.44-19.65Q123.59-19.65 122.44-18.45 121.29-17.25 121.29-15.5L121.29-15.5 121.29 0 111.34 0 111.34-26.4 119.49-26.4 120.14-22.4Q121.69-24.5 124.22-25.75 126.74-27 129.54-27L129.54-27ZM156.69-26.4L162.29-26.4 162.29-19.65 156.69-19.65 156.69-9.6Q156.69-7.8 157.29-6.98 157.89-6.15 159.49-6.15L159.49-6.15 162.29-6.15 162.29-0.3Q161.09 0.1 159.19 0.35 157.29 0.6 155.89 0.6L155.89 0.6Q151.49 0.6 149.12-1 146.74-2.6 146.74-6.45L146.74-6.45 146.74-19.65 143.04-19.65 143.04-26.4 147.14-26.4 149.29-34.4 156.69-34.4 156.69-26.4ZM177.19-29.5L167.24-29.5 167.24-36.25 177.19-36.25 177.19-29.5ZM177.19 0L167.24 0 167.24-26.4 177.19-26.4 177.19 0ZM197.19-27Q203.69-27 207.71-24.23 211.74-21.45 211.74-15.75L211.74-15.75 202.09-15.75Q202.09-20.25 197.19-20.25L197.19-20.25Q192.28-20.25 192.28-14.6L192.28-14.6 192.28-11.75Q192.28-6.15 197.38-6.15L197.38-6.15Q202.49-6.15 202.49-10.75L202.49-10.75 211.74-10.75Q211.74-5 207.71-2.2 203.69 0.6 197.19 0.6L197.19 0.6Q190.23 0.6 186.28-2.9 182.34-6.4 182.34-13.2L182.34-13.2Q182.34-20 186.28-23.5 190.23-27 197.19-27L197.19-27Z" fill="white" data-fill-palette-color="primary"></path></g></svg></g></svg></g></svg></g></svg></g></svg></g><defs></defs></svg><rect width="395.52" height="80.80313126491646" fill="none" stroke="none" visibility="hidden"></rect></g></svg></g></svg>